<?xml version="1.0" encoding="UTF-8" standalone="no"?>
<svg
   width="32"
   height="32"
   viewBox="0 0 8.4666665 8.4666669"
   version="1.1"
   id="svg20249"
   inkscape:version="1.1.2 (0a00cf5339, 2022-02-04, custom)"
   sodipodi:docname="baseicon.svg"
   xmlns:inkscape="http://www.inkscape.org/namespaces/inkscape"
   xmlns:sodipodi="http://sodipodi.sourceforge.net/DTD/sodipodi-0.dtd"
   xmlns="http://www.w3.org/2000/svg"
   xmlns:svg="http://www.w3.org/2000/svg"
   xmlns:rdf="http://www.w3.org/1999/02/22-rdf-syntax-ns#"
   xmlns:cc="http://creativecommons.org/ns#"
   xmlns:dc="http://purl.org/dc/elements/1.1/">
  <defs
     id="defs20243" />
  <sodipodi:namedview
     id="base"
     pagecolor="#ffffff"
     bordercolor="#666666"
     borderopacity="1.0"
     inkscape:pageopacity="0.0"
     inkscape:pageshadow="2"
     inkscape:zoom="44.8"
     inkscape:cx="23.404018"
     inkscape:cy="25.558036"
     inkscape:document-units="mm"
     inkscape:current-layer="iconlayer"
     showgrid="true"
     units="px"
     inkscape:window-width="3840"
     inkscape:window-height="2091"
     inkscape:window-x="0"
     inkscape:window-y="0"
     inkscape:window-maximized="1"
     inkscape:document-rotation="0"
     inkscape:pagecheckerboard="0">
    <inkscape:grid
       type="xygrid"
       id="grid20794"
       empspacing="4" />
    <inkscape:grid
       type="xygrid"
       id="grid20796"
       empspacing="1"
       originy="0.13229167"
       originx="0.13229167"
       dotted="true" />
  </sodipodi:namedview>
  <metadata
     id="metadata20246">
    <rdf:RDF>
      <cc:Work
         rdf:about="">
        <dc:format>image/svg+xml</dc:format>
        <dc:type
           rdf:resource="http://purl.org/dc/dcmitype/StillImage" />
      </cc:Work>
    </rdf:RDF>
  </metadata>
  <g
     inkscape:label="Base"
     inkscape:groupmode="layer"
     id="layer1"
     transform="translate(0,-288.53332)"
     sodipodi:insensitive="true">
    <path
       style="fill:#646464;fill-opacity:1;stroke:none;stroke-width:0.360358;stroke-linecap:round;stroke-linejoin:round;stroke-miterlimit:4;stroke-dasharray:none;stroke-dashoffset:0;stroke-opacity:1;paint-order:normal"
       d="m 4.5072672,291.74432 c -0.5663401,-0.15175 -1.1444399,0.18202 -1.29618,0.74836 l -1.05944,3.9538 a 4.2333333,4.2333333 0 0 0 0.98603,0.4092 4.2333333,4.2333333 0 0 0 5.1847901,-2.99343 4.2333333,4.2333333 0 0 0 0.1406401,-1.05798 z"
       id="rect824-2-2"
       inkscape:connector-curvature="0"
       inkscape:export-filename="/home/victor/newcontemporary.png"
       inkscape:export-xdpi="2165.5593"
       inkscape:export-ydpi="2165.5593" />
    <path
       id="path814-0-9"
       style="opacity:1;fill:#646464;fill-opacity:1;stroke:none;stroke-width:1;stroke-linecap:round;stroke-linejoin:round;stroke-miterlimit:4;stroke-dasharray:none;stroke-dashoffset:0;stroke-opacity:1;paint-order:normal"
       d="M 15.402344,0.00976563 A 15.999999,15.999999 0 0 0 0.54492188,11.857422 15.999999,15.999999 0 0 0 11.859375,31.453125 15.999999,15.999999 0 0 0 31.455078,20.140625 15.999999,15.999999 0 0 0 20.142578,0.54296875 15.999999,15.999999 0 0 0 15.402344,0.00976563 Z M 16,1 A 15,15 0 0 1 31,16 15,15 0 0 1 16,31 15,15 0 0 1 1,16 15,15 0 0 1 16,1 Z"
       transform="matrix(0.26458333,0,0,0.26458333,0,288.53332)" />
  </g>
  <g
     inkscape:groupmode="layer"
     id="iconlayer"
     inkscape:label="Icon">
    <path
       id="path1859"
       style="color:#000000;fill:#ffffff;stroke-width:1.00157;stroke-linecap:round;stroke-linejoin:round;-inkscape-stroke:none"
       d="M 16.373047 16.113281 A 0.50083743 0.50083743 0 0 0 15.871094 16.484375 L 13.544922 25.179688 A 0.50083743 0.50083743 0 0 0 13.900391 25.792969 L 20.662109 27.601562 A 0.50083743 0.50083743 0 0 0 21.275391 27.246094 L 22.566406 22.417969 A 0.50083743 0.50083743 0 0 0 22.515625 22.035156 L 19.6875 17.140625 A 0.50083743 0.50083743 0 0 0 19.384766 16.904297 L 16.484375 16.128906 A 0.50083743 0.50083743 0 0 0 16.373047 16.113281 z M 18.970703 17.855469 A 0.50078736 0.50078736 0 0 1 19.126953 17.871094 A 0.50078736 0.50078736 0 0 1 19.480469 18.484375 L 18.832031 20.898438 L 21.244141 21.546875 A 0.50078736 0.50078736 0 0 1 21.599609 22.160156 A 0.50078736 0.50078736 0 0 1 20.986328 22.515625 L 17.605469 21.607422 L 18.513672 18.226562 A 0.50078736 0.50078736 0 0 1 18.970703 17.855469 z "
       transform="scale(0.26458333)" />
  </g>
</svg>
