<?xml version="1.0" encoding="UTF-8" standalone="no"?>
<svg
   xmlns:dc="http://purl.org/dc/elements/1.1/"
   xmlns:cc="http://creativecommons.org/ns#"
   xmlns:rdf="http://www.w3.org/1999/02/22-rdf-syntax-ns#"
   xmlns:svg="http://www.w3.org/2000/svg"
   xmlns="http://www.w3.org/2000/svg"
   xmlns:xlink="http://www.w3.org/1999/xlink"
   xmlns:sodipodi="http://sodipodi.sourceforge.net/DTD/sodipodi-0.dtd"
   xmlns:inkscape="http://www.inkscape.org/namespaces/inkscape"
   width="32"
   height="32"
   viewBox="0 0 8.4666665 8.4666669"
   version="1.1"
   id="svg8"
   inkscape:version="1.0.2 (e86c870879, 2021-01-15, custom)"
   sodipodi:docname="com.vicr123.thefile_blueprint.svg"
   inkscape:export-filename="/home/victor/Documents/Website/MainSite/icon.png"
   inkscape:export-xdpi="48.000004"
   inkscape:export-ydpi="48.000004">
  <defs
     id="defs2">
    <linearGradient
       inkscape:collect="always"
       xlink:href="#linearGradient9209"
       id="linearGradient22086-4"
       gradientUnits="userSpaceOnUse"
       x1="171.45"
       y1="249.37498"
       x2="179.91667"
       y2="240.90831"
       gradientTransform="matrix(0.99999756,0,0,1,-171.44865,47.625572)" />
    <linearGradient
       id="linearGradient9209"
       inkscape:collect="always">
      <stop
         id="stop9205"
         offset="0"
         style="stop-color:#0064d9;stop-opacity:1" />
      <stop
         id="stop9207"
         offset="1"
         style="stop-color:#22c8ff;stop-opacity:1" />
    </linearGradient>
  </defs>
  <sodipodi:namedview
     id="base"
     pagecolor="#ffffff"
     bordercolor="#666666"
     borderopacity="1.0"
     inkscape:pageopacity="0.0"
     inkscape:pageshadow="2"
     inkscape:zoom="15.839192"
     inkscape:cx="33.99451"
     inkscape:cy="25.205748"
     inkscape:document-units="mm"
     inkscape:current-layer="layer1"
     showgrid="true"
     units="px"
     inkscape:window-width="2560"
     inkscape:window-height="1404"
     inkscape:window-x="3840"
     inkscape:window-y="0"
     inkscape:window-maximized="1"
     inkscape:document-rotation="0">
    <inkscape:grid
       type="xygrid"
       id="grid815"
       empspacing="4" />
    <inkscape:grid
       type="xygrid"
       id="grid817"
       empspacing="1"
       originy="0.13229167"
       originx="0.13229167"
       dotted="true" />
  </sodipodi:namedview>
  <metadata
     id="metadata5">
    <rdf:RDF>
      <cc:Work
         rdf:about="">
        <dc:format>image/svg+xml</dc:format>
        <dc:type
           rdf:resource="http://purl.org/dc/dcmitype/StillImage" />
        <dc:title></dc:title>
      </cc:Work>
    </rdf:RDF>
  </metadata>
  <g
     inkscape:label="Layer 1"
     inkscape:groupmode="layer"
     id="layer1"
     transform="translate(0,-288.53332)">
    <ellipse
       style="fill:#ffffff;fill-opacity:1;stroke:none;stroke-width:1.05833;stroke-linecap:round;stroke-linejoin:round;stroke-miterlimit:4;stroke-dasharray:none;stroke-dashoffset:0;stroke-opacity:1;paint-order:normal"
       id="path22154-5"
       cx="4.2342534"
       cy="292.76721"
       rx="3.7041576"
       ry="3.7041667" />
    <path
       style="font-style:normal;font-variant:normal;font-weight:normal;font-stretch:normal;font-size:4.06419px;line-height:1.25;font-family:Contemporary;-inkscape-font-specification:Contemporary;letter-spacing:0px;word-spacing:0px;fill:url(#linearGradient22086-4);fill-opacity:1;stroke:none;stroke-width:0.264583;stroke-linecap:round;stroke-linejoin:round;stroke-miterlimit:4;stroke-dasharray:none;stroke-dashoffset:0;stroke-opacity:1;paint-order:normal"
       d="m 4.1965281,288.53384 c -1.9755452,-0.0199 -3.78934077,1.52211 -4.12012996,3.45922 -0.37360909,1.83893 0.6559184,3.84531 2.37019426,4.60221 1.7386057,0.86185 4.0181602,0.28978 5.1607374,-1.27547 1.1376172,-1.45256 1.1354172,-3.6492 -2.3e-4,-5.10203 -0.7876281,-1.05912 -2.0902549,-1.70547 -3.4105717,-1.68393 z m 0.0377,0.52917 c 1.9241053,-0.0889 3.7873108,1.77162 3.6542811,3.58686 -1.1626172,-0.30784 -2.3219344,-0.6297 -3.4866215,-0.92872 -0.5761886,-0.1106 -1.1472572,0.33919 -1.226997,0.90988 -0.2933693,1.0951 -0.5867286,2.19021 -0.8800879,3.28531 -1.53369623,-0.8933 -2.19818461,-2.9712 -1.47282638,-4.59174 0.55433858,-1.34982 1.95320518,-2.27714 3.41225168,-2.26159 z m 4.2297097,3.74189 c 0.0821,0.0184 -0.0853,0.045 0,0 z"
       id="path814-6-1-4-9-6"
       inkscape:connector-curvature="0" />
    <path
       id="path1894"
       style="color:#000000;font-style:normal;font-variant:normal;font-weight:normal;font-stretch:normal;font-size:medium;line-height:normal;font-family:sans-serif;font-variant-ligatures:normal;font-variant-position:normal;font-variant-caps:normal;font-variant-numeric:normal;font-variant-alternates:normal;font-variant-east-asian:normal;font-feature-settings:normal;font-variation-settings:normal;text-indent:0;text-align:start;text-decoration:none;text-decoration-line:none;text-decoration-style:solid;text-decoration-color:#000000;letter-spacing:normal;word-spacing:normal;text-transform:none;writing-mode:lr-tb;direction:ltr;text-orientation:mixed;dominant-baseline:auto;baseline-shift:baseline;text-anchor:start;white-space:normal;shape-padding:0;shape-margin:0;inline-size:0;clip-rule:nonzero;display:inline;overflow:visible;visibility:visible;isolation:auto;mix-blend-mode:normal;color-interpolation:sRGB;color-interpolation-filters:linearRGB;solid-color:#000000;solid-opacity:1;vector-effect:none;fill:#ffffff;fill-opacity:1;fill-rule:nonzero;stroke:none;stroke-width:1.00157;stroke-linecap:round;stroke-linejoin:round;stroke-miterlimit:4;stroke-dasharray:none;stroke-dashoffset:0;stroke-opacity:1;color-rendering:auto;image-rendering:auto;shape-rendering:auto;text-rendering:auto;enable-background:accumulate;stop-color:#000000"
       d="M 16.373047 16.113281 A 0.50083743 0.50083743 0 0 0 15.871094 16.482422 L 13.544922 25.179688 A 0.50083743 0.50083743 0 0 0 13.900391 25.791016 L 20.662109 27.599609 A 0.50083743 0.50083743 0 0 0 21.275391 27.246094 L 22.566406 22.417969 A 0.50083743 0.50083743 0 0 0 22.515625 22.035156 L 19.6875 17.140625 A 0.50083743 0.50083743 0 0 0 19.384766 16.904297 L 16.484375 16.128906 A 0.50083743 0.50083743 0 0 0 16.373047 16.113281 z M 19.007812 17.855469 A 0.50078736 0.50078736 0 0 1 19.126953 17.871094 A 0.50078736 0.50078736 0 0 1 19.480469 18.484375 L 18.832031 20.898438 L 21.244141 21.546875 A 0.50078736 0.50078736 0 0 1 21.599609 22.160156 A 0.50078736 0.50078736 0 0 1 20.986328 22.513672 L 17.605469 21.605469 L 18.513672 18.224609 A 0.50078736 0.50078736 0 0 1 19.007812 17.855469 z "
       transform="matrix(0.26458333,0,0,0.26458333,0,288.53332)" />
  </g>
</svg>
